<svg xmlns="http://www.w3.org/2000/svg" xmlns:xlink="http://www.w3.org/1999/xlink" width="100" zoomAndPan="magnify" viewBox="0 0 75 74.999997" height="100" preserveAspectRatio="xMidYMid meet" version="1.0"><defs><clipPath id="020ea35575"><path d="M 12.09375 12.09375 L 63.09375 12.09375 L 63.09375 63.09375 L 12.09375 63.09375 Z M 12.09375 12.09375 " clip-rule="nonzero"/></clipPath><clipPath id="437ba24470"><path d="M 19 44 L 56 44 L 56 63.09375 L 19 63.09375 Z M 19 44 " clip-rule="nonzero"/></clipPath></defs><g clip-path="url(#020ea35575)"><path fill="#d9deeb" d="M 63.09375 37.59375 C 63.09375 38.035156 63.085938 38.46875 63.058594 38.902344 C 63.058594 38.910156 63.058594 38.917969 63.058594 38.917969 C 63.042969 39.257812 63.015625 39.589844 62.984375 39.921875 C 62.984375 40.023438 62.964844 40.136719 62.957031 40.238281 C 62.949219 40.320312 62.941406 40.414062 62.921875 40.5 C 62.847656 41.257812 62.726562 41.996094 62.574219 42.726562 C 62.492188 43.144531 62.398438 43.5625 62.285156 43.960938 C 62.183594 44.367188 62.074219 44.777344 61.945312 45.175781 C 61.835938 45.515625 61.726562 45.863281 61.597656 46.195312 C 61.570312 46.289062 61.539062 46.375 61.503906 46.46875 C 61.375 46.824219 61.230469 47.171875 61.085938 47.511719 C 60.996094 47.742188 60.890625 47.972656 60.773438 48.203125 C 60.6875 48.421875 60.585938 48.636719 60.476562 48.847656 C 60.304688 49.195312 60.128906 49.542969 59.933594 49.882812 C 59.5 50.683594 59.015625 51.457031 58.496094 52.195312 C 58.300781 52.476562 58.105469 52.75 57.898438 53.011719 C 57.644531 53.34375 57.390625 53.667969 57.117188 53.980469 C 56.890625 54.261719 56.640625 54.535156 56.394531 54.804688 C 56.277344 54.941406 56.148438 55.078125 56.011719 55.207031 C 55.835938 55.410156 55.640625 55.597656 55.445312 55.792969 L 55.433594 55.800781 C 55.417969 55.816406 55.394531 55.835938 55.375 55.851562 C 55.332031 55.894531 55.289062 55.9375 55.25 55.972656 C 55.019531 56.199219 54.789062 56.421875 54.550781 56.625 C 54.269531 56.878906 53.980469 57.125 53.683594 57.375 C 53.597656 57.441406 53.503906 57.507812 53.414062 57.585938 C 53.183594 57.773438 52.945312 57.953125 52.699219 58.128906 C 52.410156 58.351562 52.113281 58.554688 51.804688 58.757812 C 51.550781 58.9375 51.296875 59.097656 51.039062 59.25 C 50.835938 59.386719 50.625 59.515625 50.402344 59.632812 C 50.140625 59.796875 49.867188 59.949219 49.597656 60.09375 C 49.238281 60.28125 48.882812 60.46875 48.507812 60.636719 C 48.039062 60.867188 47.5625 61.070312 47.078125 61.257812 C 46.808594 61.375 46.527344 61.480469 46.246094 61.582031 C 45.863281 61.726562 45.472656 61.851562 45.074219 61.972656 C 44.707031 62.089844 44.335938 62.191406 43.960938 62.285156 C 43.730469 62.355469 43.5 62.40625 43.261719 62.449219 C 43.066406 62.507812 42.863281 62.550781 42.660156 62.582031 C 42.160156 62.695312 41.65625 62.777344 41.136719 62.839844 C 40.816406 62.890625 40.492188 62.933594 40.160156 62.964844 C 39.320312 63.050781 38.460938 63.09375 37.59375 63.09375 C 36.726562 63.09375 35.867188 63.050781 35.027344 62.964844 C 34.695312 62.933594 34.371094 62.890625 34.050781 62.839844 C 33.53125 62.777344 33.027344 62.695312 32.527344 62.582031 C 32.324219 62.550781 32.121094 62.507812 31.925781 62.449219 C 31.6875 62.40625 31.457031 62.355469 31.226562 62.285156 C 30.851562 62.191406 30.480469 62.089844 30.113281 61.972656 C 29.714844 61.851562 29.324219 61.726562 28.941406 61.582031 C 28.660156 61.480469 28.378906 61.375 28.109375 61.257812 C 27.625 61.070312 27.148438 60.867188 26.679688 60.636719 C 26.304688 60.46875 25.949219 60.28125 25.589844 60.09375 C 25.320312 59.949219 25.054688 59.796875 24.792969 59.632812 C 24.570312 59.515625 24.359375 59.386719 24.148438 59.25 C 23.890625 59.097656 23.636719 58.9375 23.382812 58.757812 C 23.074219 58.554688 22.777344 58.351562 22.488281 58.128906 C 22.242188 57.953125 22.003906 57.773438 21.773438 57.585938 C 21.683594 57.507812 21.589844 57.441406 21.503906 57.375 C 21.207031 57.125 20.917969 56.878906 20.636719 56.625 C 20.398438 56.421875 20.167969 56.199219 19.9375 55.972656 C 19.898438 55.9375 19.855469 55.894531 19.8125 55.851562 C 19.792969 55.835938 19.769531 55.816406 19.753906 55.800781 L 19.742188 55.792969 C 19.546875 55.597656 19.351562 55.410156 19.175781 55.207031 C 19.039062 55.078125 18.910156 54.941406 18.792969 54.804688 C 18.546875 54.535156 18.296875 54.261719 18.070312 53.980469 C 17.796875 53.667969 17.542969 53.34375 17.289062 53.011719 C 17.082031 52.75 16.886719 52.476562 16.691406 52.195312 C 16.171875 51.457031 15.6875 50.683594 15.253906 49.882812 C 15.058594 49.542969 14.882812 49.195312 14.710938 48.847656 C 14.601562 48.636719 14.5 48.421875 14.414062 48.203125 C 14.296875 47.972656 14.191406 47.742188 14.101562 47.511719 C 13.957031 47.171875 13.8125 46.824219 13.683594 46.46875 C 13.648438 46.375 13.617188 46.289062 13.589844 46.195312 C 13.460938 45.863281 13.351562 45.515625 13.242188 45.175781 C 13.113281 44.777344 13.003906 44.367188 12.902344 43.960938 C 12.789062 43.5625 12.695312 43.144531 12.613281 42.726562 C 12.460938 41.996094 12.339844 41.257812 12.265625 40.5 C 12.246094 40.414062 12.238281 40.320312 12.230469 40.238281 C 12.222656 40.136719 12.203125 40.023438 12.203125 39.921875 C 12.171875 39.589844 12.144531 39.257812 12.128906 38.917969 C 12.128906 38.917969 12.128906 38.910156 12.128906 38.902344 C 12.101562 38.46875 12.09375 38.035156 12.09375 37.59375 C 12.09375 23.507812 23.507812 12.09375 37.59375 12.09375 C 51.679688 12.09375 63.09375 23.507812 63.09375 37.59375 Z M 63.09375 37.59375 " fill-opacity="1" fill-rule="nonzero"/><path fill="#d9deeb" d="M 63.09375 37.59375 C 63.09375 38.035156 63.085938 38.46875 63.058594 38.902344 C 63.058594 38.910156 63.058594 38.917969 63.058594 38.917969 C 63.042969 39.257812 63.015625 39.589844 62.984375 39.921875 C 62.984375 40.023438 62.964844 40.136719 62.957031 40.238281 C 62.949219 40.320312 62.941406 40.414062 62.921875 40.5 C 62.847656 41.257812 62.726562 41.996094 62.574219 42.726562 C 62.492188 43.144531 62.398438 43.5625 62.285156 43.960938 C 62.183594 44.367188 62.074219 44.777344 61.945312 45.175781 C 61.835938 45.515625 61.726562 45.863281 61.597656 46.195312 C 61.570312 46.289062 61.539062 46.375 61.503906 46.46875 C 61.375 46.824219 61.230469 47.171875 61.085938 47.511719 C 60.996094 47.742188 60.890625 47.972656 60.773438 48.203125 C 60.6875 48.421875 60.585938 48.636719 60.476562 48.847656 C 60.304688 49.195312 60.128906 49.542969 59.933594 49.882812 C 59.5 50.683594 59.015625 51.457031 58.496094 52.195312 C 58.300781 52.476562 58.105469 52.75 57.898438 53.011719 C 57.644531 53.34375 57.390625 53.667969 57.117188 53.980469 C 56.890625 54.261719 56.640625 54.535156 56.394531 54.804688 C 56.277344 54.941406 56.148438 55.078125 56.011719 55.207031 C 55.835938 55.410156 55.640625 55.597656 55.445312 55.792969 L 55.433594 55.800781 C 55.417969 55.816406 55.394531 55.835938 55.375 55.851562 C 55.332031 55.894531 55.289062 55.9375 55.25 55.972656 C 55.019531 56.199219 54.789062 56.421875 54.550781 56.625 C 54.269531 56.878906 53.980469 57.125 53.683594 57.375 C 53.597656 57.441406 53.503906 57.507812 53.414062 57.585938 C 53.183594 57.773438 52.945312 57.953125 52.699219 58.128906 C 52.410156 58.351562 52.113281 58.554688 51.804688 58.757812 C 51.550781 58.9375 51.296875 59.097656 51.039062 59.25 C 50.835938 59.386719 50.625 59.515625 50.402344 59.632812 C 50.140625 59.796875 49.867188 59.949219 49.597656 60.09375 C 49.238281 60.28125 48.882812 60.46875 48.507812 60.636719 C 48.039062 60.867188 47.5625 61.070312 47.078125 61.257812 C 46.808594 61.375 46.527344 61.480469 46.246094 61.582031 C 45.863281 61.726562 45.472656 61.851562 45.074219 61.972656 C 44.707031 62.089844 44.335938 62.191406 43.960938 62.285156 C 43.730469 62.355469 43.5 62.40625 43.261719 62.449219 C 43.066406 62.507812 42.863281 62.550781 42.660156 62.582031 C 42.160156 62.695312 41.65625 62.777344 41.136719 62.839844 C 40.816406 62.890625 40.492188 62.933594 40.160156 62.964844 C 39.320312 63.050781 38.460938 63.09375 37.59375 63.09375 C 36.726562 63.09375 35.867188 63.050781 35.027344 62.964844 C 34.695312 62.933594 34.371094 62.890625 34.050781 62.839844 C 33.53125 62.777344 33.027344 62.695312 32.527344 62.582031 C 32.324219 62.550781 32.121094 62.507812 31.925781 62.449219 C 31.6875 62.40625 31.457031 62.355469 31.226562 62.285156 C 30.851562 62.191406 30.480469 62.089844 30.113281 61.972656 C 29.714844 61.851562 29.324219 61.726562 28.941406 61.582031 C 28.660156 61.480469 28.378906 61.375 28.109375 61.257812 C 27.625 61.070312 27.148438 60.867188 26.679688 60.636719 C 26.304688 60.46875 25.949219 60.28125 25.589844 60.09375 C 25.320312 59.949219 25.054688 59.796875 24.792969 59.632812 C 24.570312 59.515625 24.359375 59.386719 24.148438 59.25 C 23.890625 59.097656 23.636719 58.9375 23.382812 58.757812 C 23.074219 58.554688 22.777344 58.351562 22.488281 58.128906 C 22.242188 57.953125 22.003906 57.773438 21.773438 57.585938 C 21.683594 57.507812 21.589844 57.441406 21.503906 57.375 C 21.207031 57.125 20.917969 56.878906 20.636719 56.625 C 20.398438 56.421875 20.167969 56.199219 19.9375 55.972656 C 19.898438 55.9375 19.855469 55.894531 19.8125 55.851562 C 19.792969 55.835938 19.769531 55.816406 19.753906 55.800781 L 19.742188 55.792969 C 19.546875 55.597656 19.351562 55.410156 19.175781 55.207031 C 19.039062 55.078125 18.910156 54.941406 18.792969 54.804688 C 18.546875 54.535156 18.296875 54.261719 18.070312 53.980469 C 17.796875 53.667969 17.542969 53.34375 17.289062 53.011719 C 17.082031 52.75 16.886719 52.476562 16.691406 52.195312 C 16.171875 51.457031 15.6875 50.683594 15.253906 49.882812 C 15.058594 49.542969 14.882812 49.195312 14.710938 48.847656 C 14.601562 48.636719 14.5 48.421875 14.414062 48.203125 C 14.296875 47.972656 14.191406 47.742188 14.101562 47.511719 C 13.957031 47.171875 13.8125 46.824219 13.683594 46.46875 C 13.648438 46.375 13.617188 46.289062 13.589844 46.195312 C 13.460938 45.863281 13.351562 45.515625 13.242188 45.175781 C 13.113281 44.777344 13.003906 44.367188 12.902344 43.960938 C 12.789062 43.5625 12.695312 43.144531 12.613281 42.726562 C 12.460938 41.996094 12.339844 41.257812 12.265625 40.5 C 12.246094 40.414062 12.238281 40.320312 12.230469 40.238281 C 12.222656 40.136719 12.203125 40.023438 12.203125 39.921875 C 12.171875 39.589844 12.144531 39.257812 12.128906 38.917969 C 12.128906 38.917969 12.128906 38.910156 12.128906 38.902344 C 12.101562 38.46875 12.09375 38.035156 12.09375 37.59375 C 12.09375 23.507812 23.507812 12.09375 37.59375 12.09375 C 51.679688 12.09375 63.09375 23.507812 63.09375 37.59375 Z M 63.09375 37.59375 " fill-opacity="1" fill-rule="nonzero"/></g><path fill="#a4a8b3" d="M 46.945312 31.644531 C 46.945312 32.257812 46.882812 32.867188 46.765625 33.46875 C 46.644531 34.070312 46.46875 34.65625 46.230469 35.222656 C 45.996094 35.789062 45.710938 36.328125 45.367188 36.839844 C 45.027344 37.347656 44.640625 37.820312 44.207031 38.253906 C 43.769531 38.6875 43.296875 39.078125 42.789062 39.417969 C 42.277344 39.757812 41.738281 40.046875 41.171875 40.28125 C 40.605469 40.515625 40.019531 40.695312 39.417969 40.8125 C 38.816406 40.933594 38.207031 40.992188 37.59375 40.992188 C 36.980469 40.992188 36.371094 40.933594 35.769531 40.8125 C 35.167969 40.695312 34.582031 40.515625 34.015625 40.28125 C 33.449219 40.046875 32.910156 39.757812 32.398438 39.417969 C 31.890625 39.078125 31.417969 38.6875 30.980469 38.253906 C 30.546875 37.820312 30.160156 37.347656 29.820312 36.839844 C 29.476562 36.328125 29.191406 35.789062 28.957031 35.222656 C 28.71875 34.65625 28.542969 34.070312 28.421875 33.46875 C 28.304688 32.867188 28.242188 32.257812 28.242188 31.644531 C 28.242188 31.03125 28.304688 30.421875 28.421875 29.820312 C 28.542969 29.21875 28.71875 28.632812 28.957031 28.066406 C 29.191406 27.5 29.476562 26.960938 29.820312 26.449219 C 30.160156 25.9375 30.546875 25.464844 30.980469 25.03125 C 31.417969 24.597656 31.890625 24.210938 32.398438 23.871094 C 32.910156 23.527344 33.449219 23.242188 34.015625 23.003906 C 34.582031 22.769531 35.167969 22.59375 35.769531 22.472656 C 36.371094 22.355469 36.980469 22.292969 37.59375 22.292969 C 38.207031 22.292969 38.816406 22.355469 39.417969 22.472656 C 40.019531 22.59375 40.605469 22.769531 41.171875 23.003906 C 41.738281 23.242188 42.277344 23.527344 42.789062 23.871094 C 43.296875 24.210938 43.769531 24.597656 44.207031 25.03125 C 44.640625 25.464844 45.027344 25.9375 45.367188 26.449219 C 45.710938 26.960938 45.996094 27.5 46.230469 28.066406 C 46.46875 28.632812 46.644531 29.21875 46.765625 29.820312 C 46.882812 30.421875 46.945312 31.03125 46.945312 31.644531 Z M 46.945312 31.644531 " fill-opacity="1" fill-rule="nonzero"/><g clip-path="url(#437ba24470)"><path fill="#a4a8b3" d="M 55.25 55.972656 C 55.019531 56.199219 54.789062 56.421875 54.550781 56.625 C 54.269531 56.878906 53.980469 57.125 53.683594 57.375 C 53.597656 57.441406 53.503906 57.507812 53.414062 57.585938 C 53.183594 57.773438 52.945312 57.953125 52.699219 58.128906 C 52.410156 58.351562 52.113281 58.554688 51.804688 58.757812 C 51.550781 58.9375 51.296875 59.097656 51.039062 59.25 C 50.835938 59.386719 50.625 59.515625 50.402344 59.632812 C 50.140625 59.796875 49.867188 59.949219 49.597656 60.09375 C 49.238281 60.28125 48.882812 60.46875 48.507812 60.636719 C 48.039062 60.867188 47.5625 61.070312 47.078125 61.257812 C 46.808594 61.375 46.527344 61.480469 46.246094 61.582031 C 45.863281 61.726562 45.472656 61.851562 45.074219 61.972656 C 44.707031 62.089844 44.335938 62.191406 43.960938 62.285156 C 43.730469 62.355469 43.5 62.40625 43.261719 62.449219 C 43.066406 62.507812 42.863281 62.550781 42.660156 62.582031 C 42.160156 62.695312 41.65625 62.777344 41.136719 62.839844 C 40.816406 62.890625 40.492188 62.933594 40.160156 62.964844 C 39.320312 63.050781 38.460938 63.09375 37.59375 63.09375 C 36.726562 63.09375 35.867188 63.050781 35.027344 62.964844 C 34.695312 62.933594 34.371094 62.890625 34.050781 62.839844 C 33.53125 62.777344 33.027344 62.695312 32.527344 62.582031 C 32.324219 62.550781 32.121094 62.507812 31.925781 62.449219 C 31.6875 62.40625 31.457031 62.355469 31.226562 62.285156 C 30.851562 62.191406 30.480469 62.089844 30.113281 61.972656 C 29.714844 61.851562 29.324219 61.726562 28.941406 61.582031 C 28.660156 61.480469 28.378906 61.375 28.109375 61.257812 C 27.625 61.070312 27.148438 60.867188 26.679688 60.636719 C 26.304688 60.46875 25.949219 60.28125 25.589844 60.09375 C 25.320312 59.949219 25.054688 59.796875 24.792969 59.632812 C 24.570312 59.515625 24.359375 59.386719 24.148438 59.25 C 23.890625 59.097656 23.636719 58.9375 23.382812 58.757812 C 23.074219 58.554688 22.777344 58.351562 22.488281 58.128906 C 22.242188 57.953125 22.003906 57.773438 21.773438 57.585938 C 21.683594 57.507812 21.589844 57.441406 21.503906 57.375 C 21.207031 57.125 20.917969 56.878906 20.636719 56.625 C 20.398438 56.421875 20.167969 56.199219 19.9375 55.972656 C 21.09375 48.933594 27.613281 44.394531 37.59375 44.394531 C 47.574219 44.394531 54.09375 48.933594 55.25 55.972656 Z M 55.25 55.972656 " fill-opacity="1" fill-rule="nonzero"/></g><path fill="#d9deeb" d="M 75 37.5 C 75 38.148438 74.988281 38.789062 74.949219 39.425781 C 74.949219 39.4375 74.949219 39.449219 74.949219 39.449219 C 74.925781 39.949219 74.886719 40.4375 74.835938 40.925781 C 74.835938 41.074219 74.8125 41.238281 74.800781 41.386719 C 74.789062 41.511719 74.773438 41.648438 74.75 41.773438 C 74.636719 42.886719 74.460938 43.976562 74.238281 45.050781 C 74.113281 45.664062 73.976562 46.273438 73.8125 46.863281 C 73.664062 47.460938 73.5 48.0625 73.3125 48.648438 C 73.148438 49.148438 72.988281 49.664062 72.800781 50.148438 C 72.761719 50.289062 72.710938 50.414062 72.664062 50.550781 C 72.476562 51.074219 72.261719 51.585938 72.050781 52.085938 C 71.914062 52.425781 71.761719 52.761719 71.585938 53.101562 C 71.460938 53.425781 71.3125 53.738281 71.148438 54.050781 C 70.898438 54.5625 70.636719 55.074219 70.351562 55.574219 C 69.710938 56.75 69 57.886719 68.238281 58.976562 C 67.949219 59.386719 67.664062 59.789062 67.363281 60.175781 C 66.988281 60.664062 66.613281 61.136719 66.210938 61.601562 C 65.875 62.011719 65.511719 62.414062 65.148438 62.8125 C 64.976562 63.011719 64.789062 63.210938 64.585938 63.398438 C 64.324219 63.699219 64.039062 63.976562 63.75 64.261719 L 63.738281 64.273438 C 63.710938 64.300781 63.675781 64.324219 63.648438 64.351562 C 63.585938 64.414062 63.523438 64.476562 63.460938 64.523438 C 63.125 64.863281 62.789062 65.1875 62.4375 65.488281 C 62.023438 65.863281 61.601562 66.226562 61.164062 66.585938 C 61.039062 66.6875 60.898438 66.789062 60.761719 66.898438 C 60.425781 67.175781 60.074219 67.4375 59.710938 67.699219 C 59.289062 68.023438 58.851562 68.324219 58.398438 68.625 C 58.023438 68.886719 57.648438 69.125 57.273438 69.351562 C 56.976562 69.550781 56.664062 69.738281 56.335938 69.914062 C 55.949219 70.148438 55.550781 70.375 55.148438 70.585938 C 54.625 70.863281 54.101562 71.136719 53.550781 71.386719 C 52.863281 71.726562 52.164062 72.023438 51.449219 72.300781 C 51.050781 72.476562 50.636719 72.625 50.226562 72.773438 C 49.664062 72.988281 49.085938 73.175781 48.5 73.351562 C 47.960938 73.523438 47.414062 73.675781 46.863281 73.8125 C 46.523438 73.914062 46.1875 73.988281 45.835938 74.050781 C 45.550781 74.136719 45.25 74.199219 44.949219 74.25 C 44.210938 74.414062 43.476562 74.539062 42.710938 74.625 C 42.238281 74.699219 41.761719 74.761719 41.273438 74.8125 C 40.039062 74.9375 38.773438 75 37.5 75 C 36.226562 75 34.960938 74.9375 33.726562 74.8125 C 33.238281 74.761719 32.761719 74.699219 32.289062 74.625 C 31.523438 74.539062 30.789062 74.414062 30.050781 74.25 C 29.75 74.199219 29.449219 74.136719 29.164062 74.050781 C 28.8125 73.988281 28.476562 73.914062 28.136719 73.8125 C 27.585938 73.675781 27.039062 73.523438 26.5 73.351562 C 25.914062 73.175781 25.335938 72.988281 24.773438 72.773438 C 24.363281 72.625 23.949219 72.476562 23.550781 72.300781 C 22.835938 72.023438 22.136719 71.726562 21.449219 71.386719 C 20.898438 71.136719 20.375 70.863281 19.851562 70.585938 C 19.449219 70.375 19.0625 70.148438 18.675781 69.914062 C 18.351562 69.738281 18.039062 69.550781 17.726562 69.351562 C 17.351562 69.125 16.976562 68.886719 16.601562 68.625 C 16.148438 68.324219 15.710938 68.023438 15.289062 67.699219 C 14.925781 67.4375 14.574219 67.175781 14.238281 66.898438 C 14.101562 66.789062 13.960938 66.6875 13.835938 66.585938 C 13.398438 66.226562 12.976562 65.863281 12.5625 65.488281 C 12.210938 65.1875 11.875 64.863281 11.539062 64.523438 C 11.476562 64.476562 11.414062 64.414062 11.351562 64.351562 C 11.324219 64.324219 11.289062 64.300781 11.261719 64.273438 L 11.25 64.261719 C 10.960938 63.976562 10.675781 63.699219 10.414062 63.398438 C 10.210938 63.210938 10.023438 63.011719 9.851562 62.8125 C 9.488281 62.414062 9.125 62.011719 8.789062 61.601562 C 8.386719 61.136719 8.011719 60.664062 7.636719 60.175781 C 7.335938 59.789062 7.050781 59.386719 6.761719 58.976562 C 6 57.886719 5.289062 56.75 4.648438 55.574219 C 4.363281 55.074219 4.101562 54.5625 3.851562 54.050781 C 3.6875 53.738281 3.539062 53.425781 3.414062 53.101562 C 3.238281 52.761719 3.085938 52.425781 2.949219 52.085938 C 2.738281 51.585938 2.523438 51.074219 2.335938 50.550781 C 2.289062 50.414062 2.238281 50.289062 2.199219 50.148438 C 2.011719 49.664062 1.851562 49.148438 1.6875 48.648438 C 1.5 48.0625 1.335938 47.460938 1.1875 46.863281 C 1.023438 46.273438 0.886719 45.664062 0.761719 45.050781 C 0.539062 43.976562 0.363281 42.886719 0.25 41.773438 C 0.226562 41.648438 0.210938 41.511719 0.199219 41.386719 C 0.1875 41.238281 0.164062 41.074219 0.164062 40.925781 C 0.113281 40.4375 0.0742188 39.949219 0.0507812 39.449219 C 0.0507812 39.449219 0.0507812 39.4375 0.0507812 39.425781 C 0.0117188 38.789062 0 38.148438 0 37.5 C 0 16.789062 16.789062 0 37.5 0 C 58.210938 0 75 16.789062 75 37.5 Z M 75 37.5 " fill-opacity="1" fill-rule="nonzero"/><path fill="#d9deeb" d="M 75 37.5 C 75 38.148438 74.988281 38.789062 74.949219 39.425781 C 74.949219 39.4375 74.949219 39.449219 74.949219 39.449219 C 74.925781 39.949219 74.886719 40.4375 74.835938 40.925781 C 74.835938 41.074219 74.8125 41.238281 74.800781 41.386719 C 74.789062 41.511719 74.773438 41.648438 74.75 41.773438 C 74.636719 42.886719 74.460938 43.976562 74.238281 45.050781 C 74.113281 45.664062 73.976562 46.273438 73.8125 46.863281 C 73.664062 47.460938 73.5 48.0625 73.3125 48.648438 C 73.148438 49.148438 72.988281 49.664062 72.800781 50.148438 C 72.761719 50.289062 72.710938 50.414062 72.664062 50.550781 C 72.476562 51.074219 72.261719 51.585938 72.050781 52.085938 C 71.914062 52.425781 71.761719 52.761719 71.585938 53.101562 C 71.460938 53.425781 71.3125 53.738281 71.148438 54.050781 C 70.898438 54.5625 70.636719 55.074219 70.351562 55.574219 C 69.710938 56.75 69 57.886719 68.238281 58.976562 C 67.949219 59.386719 67.664062 59.789062 67.363281 60.175781 C 66.988281 60.664062 66.613281 61.136719 66.210938 61.601562 C 65.875 62.011719 65.511719 62.414062 65.148438 62.8125 C 64.976562 63.011719 64.789062 63.210938 64.585938 63.398438 C 64.324219 63.699219 64.039062 63.976562 63.75 64.261719 L 63.738281 64.273438 C 63.710938 64.300781 63.675781 64.324219 63.648438 64.351562 C 63.585938 64.414062 63.523438 64.476562 63.460938 64.523438 C 63.125 64.863281 62.789062 65.1875 62.4375 65.488281 C 62.023438 65.863281 61.601562 66.226562 61.164062 66.585938 C 61.039062 66.6875 60.898438 66.789062 60.761719 66.898438 C 60.425781 67.175781 60.074219 67.4375 59.710938 67.699219 C 59.289062 68.023438 58.851562 68.324219 58.398438 68.625 C 58.023438 68.886719 57.648438 69.125 57.273438 69.351562 C 56.976562 69.550781 56.664062 69.738281 56.335938 69.914062 C 55.949219 70.148438 55.550781 70.375 55.148438 70.585938 C 54.625 70.863281 54.101562 71.136719 53.550781 71.386719 C 52.863281 71.726562 52.164062 72.023438 51.449219 72.300781 C 51.050781 72.476562 50.636719 72.625 50.226562 72.773438 C 49.664062 72.988281 49.085938 73.175781 48.5 73.351562 C 47.960938 73.523438 47.414062 73.675781 46.863281 73.8125 C 46.523438 73.914062 46.1875 73.988281 45.835938 74.050781 C 45.550781 74.136719 45.25 74.199219 44.949219 74.25 C 44.210938 74.414062 43.476562 74.539062 42.710938 74.625 C 42.238281 74.699219 41.761719 74.761719 41.273438 74.8125 C 40.039062 74.9375 38.773438 75 37.5 75 C 36.226562 75 34.960938 74.9375 33.726562 74.8125 C 33.238281 74.761719 32.761719 74.699219 32.289062 74.625 C 31.523438 74.539062 30.789062 74.414062 30.050781 74.25 C 29.75 74.199219 29.449219 74.136719 29.164062 74.050781 C 28.8125 73.988281 28.476562 73.914062 28.136719 73.8125 C 27.585938 73.675781 27.039062 73.523438 26.5 73.351562 C 25.914062 73.175781 25.335938 72.988281 24.773438 72.773438 C 24.363281 72.625 23.949219 72.476562 23.550781 72.300781 C 22.835938 72.023438 22.136719 71.726562 21.449219 71.386719 C 20.898438 71.136719 20.375 70.863281 19.851562 70.585938 C 19.449219 70.375 19.0625 70.148438 18.675781 69.914062 C 18.351562 69.738281 18.039062 69.550781 17.726562 69.351562 C 17.351562 69.125 16.976562 68.886719 16.601562 68.625 C 16.148438 68.324219 15.710938 68.023438 15.289062 67.699219 C 14.925781 67.4375 14.574219 67.175781 14.238281 66.898438 C 14.101562 66.789062 13.960938 66.6875 13.835938 66.585938 C 13.398438 66.226562 12.976562 65.863281 12.5625 65.488281 C 12.210938 65.1875 11.875 64.863281 11.539062 64.523438 C 11.476562 64.476562 11.414062 64.414062 11.351562 64.351562 C 11.324219 64.324219 11.289062 64.300781 11.261719 64.273438 L 11.25 64.261719 C 10.960938 63.976562 10.675781 63.699219 10.414062 63.398438 C 10.210938 63.210938 10.023438 63.011719 9.851562 62.8125 C 9.488281 62.414062 9.125 62.011719 8.789062 61.601562 C 8.386719 61.136719 8.011719 60.664062 7.636719 60.175781 C 7.335938 59.789062 7.050781 59.386719 6.761719 58.976562 C 6 57.886719 5.289062 56.75 4.648438 55.574219 C 4.363281 55.074219 4.101562 54.5625 3.851562 54.050781 C 3.6875 53.738281 3.539062 53.425781 3.414062 53.101562 C 3.238281 52.761719 3.085938 52.425781 2.949219 52.085938 C 2.738281 51.585938 2.523438 51.074219 2.335938 50.550781 C 2.289062 50.414062 2.238281 50.289062 2.199219 50.148438 C 2.011719 49.664062 1.851562 49.148438 1.6875 48.648438 C 1.5 48.0625 1.335938 47.460938 1.1875 46.863281 C 1.023438 46.273438 0.886719 45.664062 0.761719 45.050781 C 0.539062 43.976562 0.363281 42.886719 0.25 41.773438 C 0.226562 41.648438 0.210938 41.511719 0.199219 41.386719 C 0.1875 41.238281 0.164062 41.074219 0.164062 40.925781 C 0.113281 40.4375 0.0742188 39.949219 0.0507812 39.449219 C 0.0507812 39.449219 0.0507812 39.4375 0.0507812 39.425781 C 0.0117188 38.789062 0 38.148438 0 37.5 C 0 16.789062 16.789062 0 37.5 0 C 58.210938 0 75 16.789062 75 37.5 Z M 75 37.5 " fill-opacity="1" fill-rule="nonzero"/><path fill="#a4a8b3" d="M 51.25 28.75 C 51.25 29.652344 51.160156 30.546875 50.984375 31.433594 C 50.808594 32.316406 50.550781 33.179688 50.203125 34.011719 C 49.859375 34.847656 49.433594 35.636719 48.933594 36.390625 C 48.429688 37.140625 47.859375 37.835938 47.222656 38.472656 C 46.585938 39.109375 45.890625 39.679688 45.140625 40.183594 C 44.386719 40.683594 43.597656 41.109375 42.761719 41.453125 C 41.929688 41.800781 41.066406 42.058594 40.183594 42.234375 C 39.296875 42.410156 38.402344 42.5 37.5 42.5 C 36.597656 42.5 35.703125 42.410156 34.816406 42.234375 C 33.933594 42.058594 33.070312 41.800781 32.238281 41.453125 C 31.402344 41.109375 30.613281 40.683594 29.859375 40.183594 C 29.109375 39.679688 28.414062 39.109375 27.777344 38.472656 C 27.140625 37.835938 26.570312 37.140625 26.066406 36.390625 C 25.566406 35.636719 25.140625 34.847656 24.796875 34.011719 C 24.449219 33.179688 24.191406 32.316406 24.015625 31.433594 C 23.839844 30.546875 23.75 29.652344 23.75 28.75 C 23.75 27.847656 23.839844 26.953125 24.015625 26.066406 C 24.191406 25.183594 24.449219 24.320312 24.796875 23.488281 C 25.140625 22.652344 25.566406 21.863281 26.066406 21.109375 C 26.570312 20.359375 27.140625 19.664062 27.777344 19.027344 C 28.414062 18.390625 29.109375 17.820312 29.859375 17.316406 C 30.613281 16.816406 31.402344 16.390625 32.238281 16.046875 C 33.070312 15.699219 33.933594 15.441406 34.816406 15.265625 C 35.703125 15.089844 36.597656 15 37.5 15 C 38.402344 15 39.296875 15.089844 40.183594 15.265625 C 41.066406 15.441406 41.929688 15.699219 42.761719 16.046875 C 43.597656 16.390625 44.386719 16.816406 45.140625 17.316406 C 45.890625 17.820312 46.585938 18.390625 47.222656 19.027344 C 47.859375 19.664062 48.429688 20.359375 48.933594 21.109375 C 49.433594 21.863281 49.859375 22.652344 50.203125 23.488281 C 50.550781 24.320312 50.808594 25.183594 50.984375 26.066406 C 51.160156 26.953125 51.25 27.847656 51.25 28.75 Z M 51.25 28.75 " fill-opacity="1" fill-rule="nonzero"/><path fill="#a4a8b3" d="M 63.460938 64.523438 C 63.125 64.863281 62.789062 65.1875 62.4375 65.488281 C 62.023438 65.863281 61.601562 66.226562 61.164062 66.585938 C 61.039062 66.6875 60.898438 66.789062 60.761719 66.898438 C 60.425781 67.175781 60.074219 67.4375 59.710938 67.699219 C 59.289062 68.023438 58.851562 68.324219 58.398438 68.625 C 58.023438 68.886719 57.648438 69.125 57.273438 69.351562 C 56.976562 69.550781 56.664062 69.738281 56.335938 69.914062 C 55.949219 70.148438 55.550781 70.375 55.148438 70.585938 C 54.625 70.863281 54.101562 71.136719 53.550781 71.386719 C 52.863281 71.726562 52.164062 72.023438 51.449219 72.300781 C 51.050781 72.476562 50.636719 72.625 50.226562 72.773438 C 49.664062 72.988281 49.085938 73.175781 48.5 73.351562 C 47.960938 73.523438 47.414062 73.675781 46.863281 73.8125 C 46.523438 73.914062 46.1875 73.988281 45.835938 74.050781 C 45.550781 74.136719 45.25 74.199219 44.949219 74.25 C 44.210938 74.414062 43.476562 74.539062 42.710938 74.625 C 42.238281 74.699219 41.761719 74.761719 41.273438 74.8125 C 40.039062 74.9375 38.773438 75 37.5 75 C 36.226562 75 34.960938 74.9375 33.726562 74.8125 C 33.238281 74.761719 32.761719 74.699219 32.289062 74.625 C 31.523438 74.539062 30.789062 74.414062 30.050781 74.25 C 29.75 74.199219 29.449219 74.136719 29.164062 74.050781 C 28.8125 73.988281 28.476562 73.914062 28.136719 73.8125 C 27.585938 73.675781 27.039062 73.523438 26.5 73.351562 C 25.914062 73.175781 25.335938 72.988281 24.773438 72.773438 C 24.363281 72.625 23.949219 72.476562 23.550781 72.300781 C 22.835938 72.023438 22.136719 71.726562 21.449219 71.386719 C 20.898438 71.136719 20.375 70.863281 19.851562 70.585938 C 19.449219 70.375 19.0625 70.148438 18.675781 69.914062 C 18.351562 69.738281 18.039062 69.550781 17.726562 69.351562 C 17.351562 69.125 16.976562 68.886719 16.601562 68.625 C 16.148438 68.324219 15.710938 68.023438 15.289062 67.699219 C 14.925781 67.4375 14.574219 67.175781 14.238281 66.898438 C 14.101562 66.789062 13.960938 66.6875 13.835938 66.585938 C 13.398438 66.226562 12.976562 65.863281 12.5625 65.488281 C 12.210938 65.1875 11.875 64.863281 11.539062 64.523438 C 13.238281 54.175781 22.824219 47.5 37.5 47.5 C 52.175781 47.5 61.761719 54.175781 63.460938 64.523438 Z M 63.460938 64.523438 " fill-opacity="1" fill-rule="nonzero"/></svg>