<svg xmlns="http://www.w3.org/2000/svg" xmlns:xlink="http://www.w3.org/1999/xlink" width="264" zoomAndPan="magnify" viewBox="0 0 198 197.999996" height="264" preserveAspectRatio="xMidYMid meet" version="1.0"><defs><clipPath id="4e4c516265"><path d="M 13 54.242188 L 185 54.242188 L 185 143.492188 L 13 143.492188 Z M 13 54.242188 " clip-rule="nonzero"/></clipPath></defs><g clip-path="url(#4e4c516265)"><path fill="#000000" d="M 183.488281 109.957031 C 180.980469 105.582031 176.042969 104.804688 167.863281 103.515625 C 165.914062 103.207031 163.703125 102.859375 161.308594 102.425781 C 158.757812 101.964844 149.878906 100.289062 142.746094 98.109375 C 142.195312 97.9375 141.648438 97.761719 141.101562 97.585938 C 126.839844 92.898438 115.140625 84.722656 103.824219 76.820312 C 102.484375 75.882812 101.089844 74.992188 99.742188 74.128906 C 97.453125 72.667969 95.085938 71.152344 93 69.421875 C 91.734375 68.371094 90.617188 67.367188 89.632812 66.480469 C 86.390625 63.5625 84.027344 61.445312 80.640625 61.625 C 79.890625 59.132812 78.121094 54.828125 74.777344 54.476562 C 72.75 54.257812 71.363281 55.582031 67.660156 59.433594 C 61.863281 65.460938 59.835938 67.636719 59.40625 69.464844 C 58.207031 74.566406 61.386719 79.371094 63.472656 81.855469 C 58.242188 84.761719 50.917969 85.609375 46.242188 83.253906 C 43.449219 81.847656 41.988281 79.546875 40.441406 77.113281 C 38.519531 74.089844 36.339844 70.660156 31.351562 69.15625 C 30.113281 68.785156 26.339844 67.648438 23.566406 69.679688 C 21.472656 71.214844 21.160156 73.617188 20.796875 76.398438 C 20.714844 77.03125 20.628906 77.683594 20.519531 78.367188 C 20.34375 79.441406 20.144531 80.367188 19.90625 81.203125 C 19.566406 82.386719 19.179688 83.292969 18.6875 84.441406 C 18.097656 85.824219 17.363281 87.546875 16.507812 90.316406 C 14.878906 95.582031 12.417969 103.542969 13.265625 111.613281 C 13.5625 114.449219 14.25 117.136719 15.308594 119.605469 C 16.253906 121.808594 17.515625 123.886719 19.054688 125.800781 C 17.960938 126.964844 17.101562 128.308594 16.539062 129.753906 C 15.335938 132.84375 15.125 137.253906 17.359375 140.140625 C 19.671875 143.125 23.769531 143.523438 26.324219 143.523438 C 26.894531 143.523438 27.390625 143.503906 27.773438 143.488281 L 27.882812 143.484375 C 45.601562 142.785156 63.667969 142.988281 81.136719 143.183594 C 85.472656 143.230469 89.8125 143.28125 94.148438 143.316406 C 98.101562 143.347656 102.113281 143.371094 106.175781 143.371094 C 120.828125 143.371094 136.074219 143.082031 151.179688 141.925781 L 151.398438 141.90625 C 155.234375 141.617188 166.902344 140.734375 176.015625 132.871094 C 177.9375 131.214844 183.042969 126.804688 184.339844 119.535156 C 184.753906 117.226562 185.441406 113.359375 183.488281 109.957031 Z M 62.132812 70.101562 C 62.410156 68.925781 65.457031 65.757812 69.679688 61.367188 C 72.847656 58.074219 73.882812 57.191406 74.484375 57.25 C 75.792969 57.390625 77.125 59.761719 77.910156 62.269531 C 76.078125 63.058594 74.746094 64.367188 73.960938 65.140625 C 71.242188 67.816406 70.613281 70.546875 70.058594 72.957031 C 69.730469 74.371094 69.425781 75.710938 68.722656 76.980469 C 68.53125 77.328125 68.300781 77.683594 68.039062 78.039062 C 67.429688 78.855469 66.675781 79.609375 65.816406 80.296875 C 64.070312 78.277344 61.171875 74.183594 62.132812 70.101562 Z M 19.179688 91.136719 C 19.996094 88.507812 20.667969 86.929688 21.265625 85.535156 C 21.625 84.6875 21.949219 83.921875 22.25 83.066406 C 24.699219 83.335938 26.824219 84.09375 28.582031 85.332031 C 32.78125 88.285156 33.839844 93.332031 35.304688 100.316406 L 35.507812 101.285156 C 36.210938 104.621094 36.96875 108.035156 37.757812 111.453125 L 37.660156 111.441406 C 30.46875 110.613281 23.171875 110.160156 15.949219 110.085938 C 15.511719 103.019531 17.617188 96.195312 19.179688 91.136719 Z M 17.882812 118.503906 C 17.128906 116.75 16.585938 114.863281 16.261719 112.882812 C 23.277344 112.964844 30.359375 113.410156 37.339844 114.214844 L 39.410156 114.453125 C 57.683594 116.570312 68.851562 118.1875 78.824219 125.539062 C 66.234375 125.367188 54.441406 125.171875 42.902344 124.957031 C 35.683594 124.820312 28.527344 124.671875 21.621094 124.519531 C 20.066406 122.675781 18.804688 120.652344 17.882812 118.503906 Z M 181.585938 119.046875 C 180.460938 125.339844 175.902344 129.277344 174.183594 130.761719 C 165.769531 138.019531 154.792969 138.851562 151.1875 139.125 L 150.96875 139.140625 C 131.78125 140.609375 112.328125 140.671875 94.167969 140.523438 C 89.835938 140.488281 85.503906 140.441406 81.167969 140.390625 C 63.664062 140.195312 45.5625 139.992188 27.773438 140.695312 L 27.660156 140.699219 C 25.980469 140.765625 21.519531 140.949219 19.574219 138.433594 C 18.015625 136.417969 18.261719 133.046875 19.148438 130.765625 C 19.644531 129.484375 20.453125 128.300781 21.492188 127.308594 C 28.421875 127.464844 35.601562 127.613281 42.847656 127.746094 C 55.621094 127.988281 68.695312 128.199219 82.820312 128.386719 C 94.554688 128.546875 105.183594 128.667969 114.558594 128.773438 C 126.484375 128.90625 136.789062 129.023438 144.507812 129.167969 C 145.195312 129.171875 145.972656 129.179688 146.828125 129.179688 C 151.296875 129.179688 157.847656 128.960938 163.855469 127.226562 C 168.671875 125.832031 173.28125 123.421875 177.550781 120.054688 C 178.160156 119.578125 178.261719 118.699219 177.78125 118.09375 C 177.304688 117.492188 176.425781 117.386719 175.816406 117.867188 C 171.832031 121.003906 167.546875 123.253906 163.078125 124.542969 C 156.316406 126.496094 148.652344 126.417969 144.546875 126.375 C 136.828125 126.230469 126.523438 126.113281 114.589844 125.980469 C 105.351562 125.875 94.898438 125.757812 83.371094 125.601562 C 82.9375 125.226562 82.5 124.855469 82.0625 124.503906 C 71.316406 115.851562 59.269531 113.960938 40.710938 111.796875 C 39.839844 108.070312 39.011719 104.347656 38.246094 100.710938 L 38.042969 99.746094 C 36.507812 92.421875 35.296875 86.640625 30.195312 83.050781 C 28.15625 81.613281 25.734375 80.714844 22.996094 80.351562 C 23.097656 79.863281 23.195312 79.355469 23.28125 78.808594 C 23.398438 78.085938 23.484375 77.410156 23.570312 76.761719 C 23.90625 74.203125 24.144531 72.71875 25.222656 71.929688 C 26.316406 71.128906 28.105469 71.097656 30.542969 71.832031 C 34.535156 73.03125 36.175781 75.617188 38.074219 78.609375 C 39.757812 81.253906 41.496094 83.992188 44.984375 85.746094 C 47.277344 86.902344 50.015625 87.441406 52.859375 87.441406 C 59.484375 87.441406 66.699219 84.527344 70.285156 79.703125 C 70.285156 79.703125 70.285156 79.703125 70.285156 79.699219 C 70.625 79.246094 70.921875 78.785156 71.175781 78.324219 C 72.066406 76.714844 72.429688 75.121094 72.785156 73.582031 C 73.300781 71.347656 73.789062 69.234375 75.925781 67.128906 C 76.808594 66.261719 78.144531 64.945312 79.929688 64.53125 C 80.175781 64.472656 80.421875 64.433594 80.667969 64.414062 C 82.867188 64.25 84.519531 65.636719 87.757812 68.554688 C 88.761719 69.457031 89.898438 70.480469 91.207031 71.566406 C 92.3125 72.484375 93.46875 73.328125 94.644531 74.132812 L 85.832031 77.558594 C 85.109375 77.835938 84.753906 78.648438 85.035156 79.367188 C 85.25 79.917969 85.78125 80.253906 86.339844 80.253906 C 86.507812 80.253906 86.679688 80.222656 86.847656 80.160156 L 97.507812 76.015625 C 97.746094 76.171875 97.988281 76.328125 98.230469 76.480469 C 99.554688 77.328125 100.925781 78.203125 102.222656 79.109375 C 102.472656 79.285156 102.722656 79.460938 102.976562 79.636719 L 94.304688 83.007812 C 93.582031 83.285156 93.226562 84.09375 93.507812 84.8125 C 93.722656 85.367188 94.25 85.703125 94.8125 85.703125 C 94.980469 85.703125 95.152344 85.671875 95.320312 85.609375 L 105.738281 81.558594 C 107.652344 82.886719 109.589844 84.214844 111.550781 85.519531 L 102.566406 89.011719 C 101.84375 89.292969 101.488281 90.101562 101.769531 90.820312 C 101.984375 91.371094 102.511719 91.710938 103.074219 91.710938 C 103.242188 91.710938 103.414062 91.679688 103.582031 91.613281 L 114.363281 87.425781 C 114.382812 87.417969 114.394531 87.40625 114.414062 87.398438 C 116.585938 88.796875 118.800781 90.164062 121.066406 91.476562 L 111.945312 95.019531 C 111.226562 95.300781 110.871094 96.109375 111.152344 96.828125 C 111.367188 97.378906 111.894531 97.71875 112.453125 97.71875 C 112.625 97.71875 112.796875 97.6875 112.960938 97.621094 L 123.746094 93.429688 C 123.890625 93.375 124.019531 93.289062 124.132812 93.195312 C 128.398438 95.507812 132.867188 97.601562 137.625 99.332031 C 127.828125 106.070312 115.773438 112.496094 109.597656 108.675781 C 108.042969 107.710938 107.070312 106.246094 105.839844 104.386719 C 104.074219 101.71875 101.875 98.402344 96.929688 94.816406 C 95.003906 93.421875 92.097656 91.855469 86.824219 89.007812 C 82.507812 86.679688 78.128906 84.398438 73.8125 82.234375 C 73.121094 81.886719 72.277344 82.164062 71.933594 82.855469 C 71.585938 83.542969 71.863281 84.382812 72.554688 84.730469 C 76.847656 86.882812 81.203125 89.148438 85.496094 91.464844 C 91.050781 94.464844 93.582031 95.839844 95.285156 97.078125 C 99.820312 100.363281 101.777344 103.320312 103.503906 105.925781 C 104.867188 107.984375 106.042969 109.761719 108.121094 111.046875 C 109.824219 112.101562 111.832031 112.628906 114.160156 112.628906 C 120.582031 112.628906 129.417969 108.59375 140.90625 100.453125 C 141.246094 100.5625 141.582031 100.671875 141.925781 100.777344 C 149.203125 103.003906 158.21875 104.707031 160.808594 105.175781 C 163.234375 105.613281 165.460938 105.964844 167.425781 106.273438 C 175.03125 107.472656 179.21875 108.132812 181.0625 111.34375 C 182.507812 113.867188 181.976562 116.859375 181.585938 119.046875 Z M 181.585938 119.046875 " fill-opacity="1" fill-rule="nonzero"/><path fill="#FFFF" d="M 183.488281 109.957031 C 180.980469 105.582031 176.042969 104.804688 167.863281 103.515625 C 165.914062 103.207031 163.703125 102.859375 161.308594 102.425781 C 158.757812 101.964844 149.878906 100.289062 142.746094 98.109375 C 142.195312 97.9375 141.648438 97.761719 141.101562 97.585938 C 126.839844 92.898438 115.140625 84.722656 103.824219 76.820312 C 102.484375 75.882812 101.089844 74.992188 99.742188 74.128906 C 97.453125 72.667969 95.085938 71.152344 93 69.421875 C 91.734375 68.371094 90.617188 67.367188 89.632812 66.480469 C 86.390625 63.5625 84.027344 61.445312 80.640625 61.625 C 79.890625 59.132812 78.121094 54.828125 74.777344 54.476562 C 72.75 54.257812 71.363281 55.582031 67.660156 59.433594 C 61.863281 65.460938 59.835938 67.636719 59.40625 69.464844 C 58.207031 74.566406 61.386719 79.371094 63.472656 81.855469 C 58.242188 84.761719 50.917969 85.609375 46.242188 83.253906 C 43.449219 81.847656 41.988281 79.546875 40.441406 77.113281 C 38.519531 74.089844 36.339844 70.660156 31.351562 69.15625 C 30.113281 68.785156 26.339844 67.648438 23.566406 69.679688 C 21.472656 71.214844 21.160156 73.617188 20.796875 76.398438 C 20.714844 77.03125 20.628906 77.683594 20.519531 78.367188 C 20.34375 79.441406 20.144531 80.367188 19.90625 81.203125 C 19.566406 82.386719 19.179688 83.292969 18.6875 84.441406 C 18.097656 85.824219 17.363281 87.546875 16.507812 90.316406 C 14.878906 95.582031 12.417969 103.542969 13.265625 111.613281 C 13.5625 114.449219 14.25 117.136719 15.308594 119.605469 C 16.253906 121.808594 17.515625 123.886719 19.054688 125.800781 C 17.960938 126.964844 17.101562 128.308594 16.539062 129.753906 C 15.335938 132.84375 15.125 137.253906 17.359375 140.140625 C 19.671875 143.125 23.769531 143.523438 26.324219 143.523438 C 26.894531 143.523438 27.390625 143.503906 27.773438 143.488281 L 27.882812 143.484375 C 45.601562 142.785156 63.667969 142.988281 81.136719 143.183594 C 85.472656 143.230469 89.8125 143.28125 94.148438 143.316406 C 98.101562 143.347656 102.113281 143.371094 106.175781 143.371094 C 120.828125 143.371094 136.074219 143.082031 151.179688 141.925781 L 151.398438 141.90625 C 155.234375 141.617188 166.902344 140.734375 176.015625 132.871094 C 177.9375 131.214844 183.042969 126.804688 184.339844 119.535156 C 184.753906 117.226562 185.441406 113.359375 183.488281 109.957031 Z M 62.132812 70.101562 C 62.410156 68.925781 65.457031 65.757812 69.679688 61.367188 C 72.847656 58.074219 73.882812 57.191406 74.484375 57.25 C 75.792969 57.390625 77.125 59.761719 77.910156 62.269531 C 76.078125 63.058594 74.746094 64.367188 73.960938 65.140625 C 71.242188 67.816406 70.613281 70.546875 70.058594 72.957031 C 69.730469 74.371094 69.425781 75.710938 68.722656 76.980469 C 68.53125 77.328125 68.300781 77.683594 68.039062 78.039062 C 67.429688 78.855469 66.675781 79.609375 65.816406 80.296875 C 64.070312 78.277344 61.171875 74.183594 62.132812 70.101562 Z M 19.179688 91.136719 C 19.996094 88.507812 20.667969 86.929688 21.265625 85.535156 C 21.625 84.6875 21.949219 83.921875 22.25 83.066406 C 24.699219 83.335938 26.824219 84.09375 28.582031 85.332031 C 32.78125 88.285156 33.839844 93.332031 35.304688 100.316406 L 35.507812 101.285156 C 36.210938 104.621094 36.96875 108.035156 37.757812 111.453125 L 37.660156 111.441406 C 30.46875 110.613281 23.171875 110.160156 15.949219 110.085938 C 15.511719 103.019531 17.617188 96.195312 19.179688 91.136719 Z M 17.882812 118.503906 C 17.128906 116.75 16.585938 114.863281 16.261719 112.882812 C 23.277344 112.964844 30.359375 113.410156 37.339844 114.214844 L 39.410156 114.453125 C 57.683594 116.570312 68.851562 118.1875 78.824219 125.539062 C 66.234375 125.367188 54.441406 125.171875 42.902344 124.957031 C 35.683594 124.820312 28.527344 124.671875 21.621094 124.519531 C 20.066406 122.675781 18.804688 120.652344 17.882812 118.503906 Z M 181.585938 119.046875 C 180.460938 125.339844 175.902344 129.277344 174.183594 130.761719 C 165.769531 138.019531 154.792969 138.851562 151.1875 139.125 L 150.96875 139.140625 C 131.78125 140.609375 112.328125 140.671875 94.167969 140.523438 C 89.835938 140.488281 85.503906 140.441406 81.167969 140.390625 C 63.664062 140.195312 45.5625 139.992188 27.773438 140.695312 L 27.660156 140.699219 C 25.980469 140.765625 21.519531 140.949219 19.574219 138.433594 C 18.015625 136.417969 18.261719 133.046875 19.148438 130.765625 C 19.644531 129.484375 20.453125 128.300781 21.492188 127.308594 C 28.421875 127.464844 35.601562 127.613281 42.847656 127.746094 C 55.621094 127.988281 68.695312 128.199219 82.820312 128.386719 C 94.554688 128.546875 105.183594 128.667969 114.558594 128.773438 C 126.484375 128.90625 136.789062 129.023438 144.507812 129.167969 C 145.195312 129.171875 145.972656 129.179688 146.828125 129.179688 C 151.296875 129.179688 157.847656 128.960938 163.855469 127.226562 C 168.671875 125.832031 173.28125 123.421875 177.550781 120.054688 C 178.160156 119.578125 178.261719 118.699219 177.78125 118.09375 C 177.304688 117.492188 176.425781 117.386719 175.816406 117.867188 C 171.832031 121.003906 167.546875 123.253906 163.078125 124.542969 C 156.316406 126.496094 148.652344 126.417969 144.546875 126.375 C 136.828125 126.230469 126.523438 126.113281 114.589844 125.980469 C 105.351562 125.875 94.898438 125.757812 83.371094 125.601562 C 82.9375 125.226562 82.5 124.855469 82.0625 124.503906 C 71.316406 115.851562 59.269531 113.960938 40.710938 111.796875 C 39.839844 108.070312 39.011719 104.347656 38.246094 100.710938 L 38.042969 99.746094 C 36.507812 92.421875 35.296875 86.640625 30.195312 83.050781 C 28.15625 81.613281 25.734375 80.714844 22.996094 80.351562 C 23.097656 79.863281 23.195312 79.355469 23.28125 78.808594 C 23.398438 78.085938 23.484375 77.410156 23.570312 76.761719 C 23.90625 74.203125 24.144531 72.71875 25.222656 71.929688 C 26.316406 71.128906 28.105469 71.097656 30.542969 71.832031 C 34.535156 73.03125 36.175781 75.617188 38.074219 78.609375 C 39.757812 81.253906 41.496094 83.992188 44.984375 85.746094 C 47.277344 86.902344 50.015625 87.441406 52.859375 87.441406 C 59.484375 87.441406 66.699219 84.527344 70.285156 79.703125 C 70.285156 79.703125 70.285156 79.703125 70.285156 79.699219 C 70.625 79.246094 70.921875 78.785156 71.175781 78.324219 C 72.066406 76.714844 72.429688 75.121094 72.785156 73.582031 C 73.300781 71.347656 73.789062 69.234375 75.925781 67.128906 C 76.808594 66.261719 78.144531 64.945312 79.929688 64.53125 C 80.175781 64.472656 80.421875 64.433594 80.667969 64.414062 C 82.867188 64.25 84.519531 65.636719 87.757812 68.554688 C 88.761719 69.457031 89.898438 70.480469 91.207031 71.566406 C 92.3125 72.484375 93.46875 73.328125 94.644531 74.132812 L 85.832031 77.558594 C 85.109375 77.835938 84.753906 78.648438 85.035156 79.367188 C 85.25 79.917969 85.78125 80.253906 86.339844 80.253906 C 86.507812 80.253906 86.679688 80.222656 86.847656 80.160156 L 97.507812 76.015625 C 97.746094 76.171875 97.988281 76.328125 98.230469 76.480469 C 99.554688 77.328125 100.925781 78.203125 102.222656 79.109375 C 102.472656 79.285156 102.722656 79.460938 102.976562 79.636719 L 94.304688 83.007812 C 93.582031 83.285156 93.226562 84.09375 93.507812 84.8125 C 93.722656 85.367188 94.25 85.703125 94.8125 85.703125 C 94.980469 85.703125 95.152344 85.671875 95.320312 85.609375 L 105.738281 81.558594 C 107.652344 82.886719 109.589844 84.214844 111.550781 85.519531 L 102.566406 89.011719 C 101.84375 89.292969 101.488281 90.101562 101.769531 90.820312 C 101.984375 91.371094 102.511719 91.710938 103.074219 91.710938 C 103.242188 91.710938 103.414062 91.679688 103.582031 91.613281 L 114.363281 87.425781 C 114.382812 87.417969 114.394531 87.40625 114.414062 87.398438 C 116.585938 88.796875 118.800781 90.164062 121.066406 91.476562 L 111.945312 95.019531 C 111.226562 95.300781 110.871094 96.109375 111.152344 96.828125 C 111.367188 97.378906 111.894531 97.71875 112.453125 97.71875 C 112.625 97.71875 112.796875 97.6875 112.960938 97.621094 L 123.746094 93.429688 C 123.890625 93.375 124.019531 93.289062 124.132812 93.195312 C 128.398438 95.507812 132.867188 97.601562 137.625 99.332031 C 127.828125 106.070312 115.773438 112.496094 109.597656 108.675781 C 108.042969 107.710938 107.070312 106.246094 105.839844 104.386719 C 104.074219 101.71875 101.875 98.402344 96.929688 94.816406 C 95.003906 93.421875 92.097656 91.855469 86.824219 89.007812 C 82.507812 86.679688 78.128906 84.398438 73.8125 82.234375 C 73.121094 81.886719 72.277344 82.164062 71.933594 82.855469 C 71.585938 83.542969 71.863281 84.382812 72.554688 84.730469 C 76.847656 86.882812 81.203125 89.148438 85.496094 91.464844 C 91.050781 94.464844 93.582031 95.839844 95.285156 97.078125 C 99.820312 100.363281 101.777344 103.320312 103.503906 105.925781 C 104.867188 107.984375 106.042969 109.761719 108.121094 111.046875 C 109.824219 112.101562 111.832031 112.628906 114.160156 112.628906 C 120.582031 112.628906 129.417969 108.59375 140.90625 100.453125 C 141.246094 100.5625 141.582031 100.671875 141.925781 100.777344 C 149.203125 103.003906 158.21875 104.707031 160.808594 105.175781 C 163.234375 105.613281 165.460938 105.964844 167.425781 106.273438 C 175.03125 107.472656 179.21875 108.132812 181.0625 111.34375 C 182.507812 113.867188 181.976562 116.859375 181.585938 119.046875 Z M 181.585938 119.046875 " fill-opacity="1" fill-rule="nonzero"/></g></svg>